<svg xmlns="http://www.w3.org/2000/svg" viewBox="0 0 64 64" width="64" height="64">
  <!-- Rounded Rectangle Background -->
  <rect x="2" y="2" width="60" height="60" rx="12" ry="12" fill="#ffffff" stroke="#f5f5f5" stroke-width="2"/>
  
  <!-- Gradient Definition -->
  <defs>
    <linearGradient id="heartGradient" x1="0%" y1="0%" x2="100%" y2="100%">
      <stop offset="0%" style="stop-color:#ff6b6b;stop-opacity:1" />
      <stop offset="100%" style="stop-color:#ee5a6f;stop-opacity:1" />
    </linearGradient>
    <filter id="shadow">
      <feDropShadow dx="0" dy="2" stdDeviation="2" flood-opacity="0.2"/>
    </filter>
  </defs>
  
  <!-- Red Heart with Gradient -->
  <path d="M32 52c-.5 0-1-.2-1.4-.5C28.5 49.7 12 36.5 12 26c0-7.2 5.8-13 13-13 3.9 0 7.4 1.7 9.8 4.5 2.4-2.8 5.9-4.5 9.8-4.5 7.2 0 13 5.8 13 13 0 10.5-16.5 23.7-18.6 25.5-.4.3-.9.5-1.4.5z" 
        fill="url(#heartGradient)" 
        filter="url(#shadow)"/>
  
  <!-- Heart Highlights -->
  <ellipse cx="24" cy="24" rx="5" ry="4" fill="#ffffff" opacity="0.4" transform="rotate(-20 24 24)"/>
  <ellipse cx="28" cy="28" rx="3" ry="2" fill="#ffffff" opacity="0.2" transform="rotate(-20 28 28)"/>
</svg>