<svg xmlns="http://www.w3.org/2000/svg" viewBox="0 0 32 32" width="32" height="32">
  <!-- Background Circle -->
  <circle cx="16" cy="16" r="15" fill="#ffffff" stroke="#f0f0f0" stroke-width="1"/>
  
  <!-- Red Heart -->
  <path d="M16 28.5c-.3 0-.6-.1-.8-.3C14.3 27.4 6 20.1 6 13.5 6 9.4 9.4 6 13.5 6c2.2 0 4.2 1 5.5 2.6C20.3 7 22.3 6 24.5 6 28.6 6 32 9.4 32 13.5c0 6.6-8.3 13.9-9.2 14.7-.2.2-.5.3-.8.3z" 
        fill="#ef4444" 
        transform="scale(0.7) translate(7, 6)"/>
  
  <!-- Heart Highlight for depth -->
  <ellipse cx="13" cy="13" rx="3" ry="2.5" fill="#ffffff" opacity="0.3" transform="rotate(-20 13 13)"/>
</svg>